<svg xmlns="http://www.w3.org/2000/svg" width="1724" height="676" version="1.0" viewBox="0 0 1293 507"><path fill="#557989" d="M639.2 3.7c2 2.1 4.2 5.1 4.7 6.6.7 1.7 1.1 11.3 1.1 23.3V54h32V34.2c0-10.8.5-21.4 1-23.4.7-2.3 2.6-5 5.3-7.2l4.2-3.6h-51.9l3.6 3.7zM567.5 55.2c-.3.7-1.8 7.3-3.3 14.6-3.3 15.1-3.9 14.2 6.8 9.5l6.5-2.8 33.3-.3 33.2-.4V54h-38c-29.5 0-38.2.3-38.5 1.2zM678 65v11l10.3.2c5.6.1 19.4.3 30.7.3 21.6.1 27.2.9 36.8 5.1 2.8 1.3 5.2 2.2 5.2 2.1 0-.1-1.3-6.5-3-14.2-1.6-7.7-3-14.3-3-14.7 0-.5-17.3-.8-38.5-.8H678v11zM477.4 59.4c-9.7 1.8-13.7 3.2-21.7 7.4-8.8 4.6-15.2 11-19.1 19.2-2.9 6-3.1 7.3-3.1 17s.2 11 3.2 17.3c6.5 13.7 17.1 22 49 38.5 11.4 5.9 22.8 12.2 25.3 13.9 6.4 4.4 12.6 11.2 14.5 15.5 3 7.3 1.3 17.5-4.2 24.6-13.1 17.2-54.7 18.9-80.4 3.3l-6.4-3.9-.3 13.6c-.2 9.9.1 13.8 1 14.3 2.4 1.5 19.4 4.1 32.1 4.8 44.7 2.8 74.9-8 85.9-30.6 3.1-6.5 3.3-7.3 3.3-18.8 0-11.7-.1-12.2-3.4-19-6.8-13.8-18.9-23.2-52-40.5-33.2-17.2-40.5-23.6-40.4-35.3.1-9.8 7.1-18.2 19-22.8 8.1-3.1 25.2-3.8 34.3-1.4 7.3 1.9 16.3 6.1 21.5 10.1l3.5 2.6V75.6c0-15.3 1.1-13.5-9.5-15.7-8.4-1.7-43.9-2.1-52.1-.5zM6.4 65c3.1 3.3 6.5 7.9 7.6 10.2 1 2.4 16.8 43.4 35 91.3 18.3 47.8 33.5 87.3 33.9 87.7.3.4 9.1-21.2 19.5-48 33.9-87.4 30.7-79.8 32.1-77.1.7 1.3 11.7 29.8 24.5 63.4 12.8 33.5 23.6 61.3 24 61.8.3.4 16.1-39.4 35-88.5 18.8-49.1 35.2-91.1 36.2-93.2 1.1-2.1 4-6.1 6.5-8.7l4.6-4.9h-17.7c-9.7 0-17.6.1-17.6.2 0 .2.6 2.3 1.4 4.8 1.2 4.2 1.2 5.2-.8 11.2-4.4 13.8-44.1 116.6-44.8 116-1.5-1.6-42-108.3-45.1-118.9-1.5-4.8-1.4-5.4.4-8.9 1-2.1 1.9-4 1.9-4.1 0-.2-9.3-.3-20.6-.3h-20.6l5 5.5c5.5 6 8.6 11.9 13.2 24.9l3 8.5-18.1 46.8c-10 25.7-18.3 47-18.5 47.2-.4.5-1.1-1.4-18.7-46.6-17.4-44.6-26.4-69.3-27.3-75-.4-3.1-.1-4.5 2-7.6l2.5-3.7H.7l5.7 6zM279 59.5c0 .3 1.7 2.4 3.8 4.6l3.7 4.2.3 79.1c.2 43.5 0 81.1-.3 83.5-.5 3.1-1.7 5.5-4.7 8.7l-4.1 4.4h60.1c35.3 0 60.3-.4 60.6-.9.8-1.2 8.6-26.5 8.3-26.7-.1-.1-4.2 1.2-9.2 2.9l-9 3.2h-75l-.3-35.1-.2-35.1 13.6-.6c31.2-1.5 45.7-.6 53.6 3.4 2 1 4 1.9 4.3 1.9.3 0 .5-5.4.5-12v-12l-35.7-.2-35.8-.3-.3-27.3-.2-27.3 30.7.3 30.8.3 5.3 2.8L385 84V59h-53c-29.1 0-53 .2-53 .5zM782.7 62.2c1.7 1.8 3.6 4.3 4.2 5.5.8 1.5 1.1 25.6 1.1 84.3v82l-4 4.4c-2.2 2.4-4 4.6-4 5 0 .3 27 .6 59.9.6h60l3.5-11.3c5.2-16.8 5.3-17.2 3-16.2-1 .5-5 2-8.9 3.4-7 2.6-7.1 2.6-44.7 2.9l-37.8.3v-70.8l12.8-.6c30.9-1.6 45.8-.6 54.4 3.6l4.8 2.4V133h-72V77.9l30.3.3c32.6.3 30 0 41 5.6.4.2.7-5.3.7-12.2V59H779.6l3.1 3.2zM935.5 63.6l4 4.8.3 80.1c.2 44 0 81.5-.3 83.3-.4 2-2.4 5.3-4.7 7.8l-4.1 4.4h23.2c12.7 0 23.1-.1 23.1-.3 0-.2-2-1.8-4.4-3.5-3.4-2.5-4.6-4.1-5.5-7.6-1.2-5.1-1.6-81.6-.3-81.6.4 0 18.3 20.9 39.7 46.5l39 46.4h43l-5.4-3.2c-8.7-5.2-12.4-8.7-27.9-26.4-45.8-52.3-56.3-64.5-56-64.7.2-.2 3-.8 6.3-1.5 14.7-2.8 28.8-12.9 34.6-24.7 5.5-11.1 5.6-27.6.3-39.5-3.5-7.8-12.1-15.9-20.1-18.9-12.6-4.7-17-5.2-53.8-5.7l-34.9-.5 3.9 4.8zm58.6 14.8c3.7.8 8.5 2.4 10.6 3.5 12.3 6.2 16.8 23.4 9.9 37.5-2.9 5.8-7.7 9.8-14.7 12.3-6.5 2.2-20 3.6-27.3 2.8l-6.6-.7V78.1l3.3-.4c7.4-.9 18.6-.6 24.8.7zM1101 63.5c6.3 9.2 6 4 6 90.9v79.5l-4.2 4.8-4.1 4.8 10.1.3c5.6.1 14.7.1 20.3 0l10-.3-5-3.8-5.1-3.7V95.6l3.4 3.3c1.8 1.8 36.4 37.4 76.7 79.1l73.4 75.8.5-93.2c.3-51.2.6-93.3.8-93.5.1-.2 2.1-2.1 4.4-4.2l4.3-3.9h-19.8c-10.8 0-19.7.3-19.7.6 0 .4 1.3 2.1 2.9 4 1.9 2.1 3.4 5.3 4.1 8.8 1.1 5.5 2.1 120.9 1 120.4-.3-.2-29.7-30.3-65.4-67.1L1130.8 59h-32.9l3.1 4.5zM644.8 175.5l-.3 98.4-4.5 4.6-4.4 4.5h25.7c14.1 0 25.7-.2 25.7-.4s-1.5-1.4-3.4-2.5c-6.9-4.3-6.6.7-6.6-106.6V77h-32l-.2 98.5zM295.9 342.8c-4.5 2.3-5.9 3.7-8.3 8.5-2.6 5-3 6.9-2.9 13.6 0 9.8 2.9 16.2 9.2 20.6 4 2.8 4.8 3 14 3 8.9 0 10.1-.2 13.8-2.7 11.3-7.4 13.2-28.9 3.5-39.2-6.8-7.2-19.7-8.9-29.3-3.8zm19.1 7.1c8.8 6.1 7.8 26.1-1.4 30.5-4.3 2-6.9 2-11.2 0-8.5-4.1-10.2-23-2.6-29.7 4.2-3.8 10.4-4.1 15.2-.8zM410.7 341c-4.4 1.3-9.5 5.7-11.9 10.3-3 5.6-3.2 20.4-.4 25.7 4.6 8.8 10.3 12 21.1 12 8.9 0 13.7-2 18.3-7.5 3.7-4.6 5.2-9.6 5.2-17.6 0-10.6-5-18.9-13.2-22.4-4-1.6-14.4-1.9-19.1-.5zm16.1 8.7c3.8 2.4 6.5 9.6 6 16.2-.5 7.1-2.4 10.9-6.8 13.9-2.7 1.8-4.4 2.3-7.4 1.9-5.9-.8-8.8-3.5-11-10.2-3.3-9.9-.1-19.7 7.4-22.9 3.8-1.7 8.2-1.3 11.8 1.1zM476.9 341.4c-5.9 2.1-9.6 5.3-12.3 10.8-2.1 4.3-2.6 6.6-2.6 13 0 9 1.4 13 6 17.5 5.4 5.2 10.3 6.6 22.2 6.1 5.7-.2 10.9-.7 11.6-1.1.8-.6 1.2-4.5 1.2-13.8V361h-19v8h10v6c0 5.6-.2 6-2.6 6.6-6.3 1.6-12.9-1.4-17.2-7.7-2-2.9-2.3-4.4-2-10 .5-8.9 3.6-13.2 11.1-15.4 5.1-1.5 7.3-1.4 16.8.7 1 .2 1.4-.7 1.4-3.7 0-3.3-.4-4-2.5-4.6-4.3-1.2-18.3-.9-22.1.5zM569.6 341.5c-10.2 3.6-15.6 11.9-15.6 24.1 0 15 9.2 23.4 25.7 23.4 10.6 0 11.3-.3 11.3-5.2 0-3.4-.3-3.9-1.7-3.3-4.8 1.8-11.1 1.7-15.6-.3-10.6-4.7-12.9-19.4-4.3-28 4.3-4.4 9.6-5.6 16.5-3.8l5.1 1.3v-4.2c0-4-.2-4.3-3.1-4.9-5.2-1-14.2-.6-18.3.9zM755.1 341.8c-5.2 2.6-7.5 6.3-7.5 12.2 0 6.8 2.3 9.6 12 14.5 7.2 3.6 7.9 4.3 8.2 7.2.3 2.7-.2 3.4-2.7 4.7-3.7 2-6.7 2-11.9.2l-4-1.4-.6 4c-.4 2.2-.4 4.3-.1 4.7.4.3 5 .7 10.3.9 8.3.2 10.2 0 12.9-1.7 4.7-2.9 6.7-6.6 6.7-12.1 0-7-2.2-9.6-12-14.1-7.6-3.5-8.4-4.2-8.4-6.6 0-3.6.9-4.9 4.3-6.2 1.9-.8 4.2-.8 7.4-.1 2.5.6 4.7.9 4.8.8.1-.2.5-1.9.9-3.9.6-3.5.5-3.7-2.5-4.3-6-1.2-14.3-.6-17.8 1.2zM120 344.5v3.5h14v41h9l.2-20.3.3-20.2 6.8-.3 6.7-.3V341h-37v3.5zM175 365v24h10v-21h19v21h10v-48h-10v19h-19v-19h-10v24zM237 365v24h28v-8h-19v-13h17v-8h-17.1l.3-5.8.3-5.7 9.3-.3 9.2-.3V341h-28v24zM352 365v24h28v-8h-18v-40h-10v24zM525 365v24h9v-48h-9v24zM623 343.2c-.6 1.3-4.8 12-9.4 23.8l-8.4 21.5 4 .3c5.7.5 6.3 0 8.4-5.7l1.8-5.1h19.5l1.9 5.2 2 5.3 5.6.3 5.6.3-2.2-5.8c-1.3-3.2-5.4-13.9-9.3-23.8l-7.1-18-5.7-.3c-5.1-.3-5.8-.1-6.7 2zm13 26.5c0 .2-2.9.3-6.5.3s-6.5-.4-6.5-.8c0-.8 4-12.8 5.6-16.6.5-1.4 1.5.4 4 7.5 1.8 5.2 3.3 9.5 3.4 9.6zM672 365v24h28v-8h-19v-40h-9v24zM799 365v24h29v-8h-19v-13h17v-8h-17v-12h18v-7h-28v24zM849 365v24h9v-19.2c0-11 .4-18.8.9-18.3.5.6 3.5 9.2 6.6 19.2l5.8 18.3h9.6l6.3-19.3 6.3-19.2.3 19.2.2 19.3h9v-48h-15.6l-5.5 17.4c-3 9.6-5.7 17.2-6 17-.4-.2-1-1.6-1.4-3.1-.3-1.6-2.6-9.2-5.1-17.1l-4.5-14.2H849v24zM925 365v24h10v-48h-10v24zM957 365v24h9v-17.8l.1-17.7 9.1 17.7 9.1 17.8H996v-48h-9l-.2 17.2-.3 17.3-8.9-17.3-8.9-17.2H957v24zM1030.9 343.7c-.6 1.6-4.6 12-9 23.2-4.3 11.2-7.9 20.7-7.9 21.2s2.2.9 4.9.9h4.8l1.9-5.3 1.9-5.2h20l1.9 5.2 1.9 5.3h5.4c4.8 0 5.4-.2 4.9-1.8-.4-.9-4.6-11.7-9.4-23.9l-8.7-22.3h-5.8c-5.4 0-5.8.2-6.8 2.7zm10.1 16.5c1.6 4.8 3 8.9 3 9.2 0 .3-3 .6-6.6.6-4.9 0-6.5-.3-6.2-1.3.3-.6 1.7-4.9 3.3-9.4 1.6-4.6 3-8.2 3.1-8 .2.1 1.7 4.2 3.4 8.9zM1079 365v24h10v-20h3.4c4.2 0 4.6.5 8.6 11.2l3.3 8.8h5.4c5.2 0 5.4-.1 4.7-2.3-1.6-5.2-8.5-20.2-9.4-20.5-1.5-.5-1.2-2.2.4-2.2.8 0 2.6-1.4 4-3.1 2-2.3 2.6-4.2 2.6-7.8 0-9.5-4.6-12.1-21.5-12.1H1079v24zm18.8-15.9c3.4 1.2 4.7 3.7 3.8 7.5-.7 2.8-4.1 4.4-9.2 4.4h-3.4v-6.5c0-6.5 0-6.5 2.9-6.5 1.5 0 4.2.5 5.9 1.1zM1127.3 341.7c.2.5 4 6.9 8.5 14.4l8.2 13.5V389h10v-9.8c0-9.2.2-10 3.3-15.2 1.8-3 5.7-9.4 8.5-14.3l5.2-8.7h-10.6l-5.4 9.6c-6.2 10.9-5.4 11-12.3-1.8l-4.2-7.8h-5.8c-3.2 0-5.6.3-5.4.7z"/><path fill="#7eaf62" d="M386.3 459.9c-11.2 2.9-17.3 11.2-17.3 23.5.1 13.8 6.2 20.8 19.8 23.1 2.4.4 6.8.4 9.8 0l5.4-.6V498.2l-4.2 1c-5.6 1.2-12 .2-15.4-2.4-3.3-2.7-6.3-9.2-6.4-13.8 0-4.5 3.7-11.8 7.3-14.4 3-2.2 10.7-2.8 16-1.2 2.6.8 2.7.7 2.7-2.7 0-2-.4-3.8-1-4.2-1.6-1-13.4-1.5-16.7-.6zM433.1 460.4c-9.3 3.1-14.1 10.7-14.1 22.6 0 12.8 5.6 20.6 16.3 23 19.2 4.3 33.2-11.4 27.7-31.1-3.4-12.1-16.9-18.7-29.9-14.5zm15.8 8.4c1.6 1.1 3.3 4 4.4 7.4 4.8 14.6-5.9 28.3-17.2 22.2-5.3-2.9-7.6-7.6-7.6-15.4.1-7.6 2.1-12.1 6.8-15.1 3.8-2.4 9.7-2 13.6.9zM494.1 460.4c-5.3 1.8-9.7 5.8-12.2 11.1-2.5 5.4-2.5 17.5 0 23 5.2 11.5 20.8 15.9 32.6 9.2 14.3-8.1 14.1-33.6-.3-41.5-5.3-3-14.1-3.7-20.1-1.8zm15.8 8.4c1.6 1.1 3.3 4 4.4 7.4 4.8 14.6-5.9 28.3-17.2 22.2-5.3-2.9-7.6-7.6-7.6-15.4.1-7.6 2.1-12.1 6.8-15.1 3.8-2.4 9.7-2 13.6.9zM543 483v23h8.9l.3-10.8.3-10.7 8.4 10.7 8.4 10.8h6c5.6 0 5.9-.1 4.5-1.8-10.9-12.9-17.8-22.3-17.2-23.4.4-.7 3.9-4.9 7.8-9.3 11.3-12.8 10.7-11.5 4.4-11.5h-5.6l-7.9 9.4c-4.3 5.2-8.1 9.5-8.5 9.5-.5.1-.8-4.2-.8-9.4V460h-9v23zM625 483v23h27v-7h-18v-39h-9v23zM667 483v23h9v-46h-9v23zM695 483v23h10.5c15.1 0 20.1-2.4 21.9-10.7 1-4.4-1.5-9.7-5.3-11.4-3.6-1.6-3.9-2.5-1.1-3.4 4.5-1.4 6.5-10.9 3.4-15.4-2.7-3.8-7.4-5.1-18.9-5.1H695v23zm19.8-14.4c4.5 3.1 2.1 8.8-4.3 10-5.6 1-6.5.2-6.5-6.1V467h4.3c2.3 0 5.3.7 6.5 1.6zm-1.5 17.5c2.6.7 4.1 1.8 4.7 3.5 1.4 3.6 1.3 4.2-1.5 6.9-1.9 2-3.4 2.5-7.5 2.5h-5v-6.3c0-3.5.3-6.7.7-7 .9-1 4.2-.8 8.6.4zM745 483v23h9v-19h2.8c3.8 0 5.4 2 8.8 11.2l2.9 7.8h10.4l-4-9.8c-2.2-5.3-4.9-10.4-5.9-11.3-1.9-1.6-1.9-1.7 1.1-2.9 5.4-2.3 7.5-10 4.4-15.9-2.2-4.4-7.8-6.1-19.5-6.1h-10v23zm19.5-13.5c3 2.9 3.1 4.5.7 7.5-1.2 1.5-3.3 2.4-6.5 2.7l-4.7.6V467h4c3 0 4.7.7 6.5 2.5zM799.7 482.3c-4.8 12.3-8.7 22.7-8.7 23.1 0 .4 2.1.6 4.6.4 4.6-.3 4.7-.3 6.6-5.6l1.9-5.2H822.8l1.8 5.1c2.1 5.8 2.6 6.1 8.2 5.7l4-.3L828 483l-8.8-22.5-5.4-.3-5.4-.3-8.7 22.4zm17.2-4c1.7 4.9 3.1 9 3.1 9.3 0 .2-3 .4-6.6.4-4.9 0-6.5-.3-6.2-1.3.3-.6 1.7-4.9 3.3-9.5 1.5-4.6 2.8-8.2 3-8 .2.2 1.7 4.3 3.4 9.1zM852 483v23h9v-19h2.8c4.1 0 4.9 1 8.6 10.1l3.4 8.4 5.1.3 5.1.3-2.1-5.3c-3.6-9.4-5.9-14.2-7.6-16-.9-1-1.1-1.8-.6-1.8.6 0 2.5-1.3 4.2-2.9 2.7-2.5 3.1-3.6 3.1-7.9 0-9.5-4.7-12.2-21.2-12.2H852v23zm20.7-13.4c3.4 4.7.1 9.3-7.2 10.1l-4.5.6v-13.6l5.2.5c3.4.4 5.6 1.2 6.5 2.4zM896 460.5c0 .3 3.6 6.4 8 13.6l8 13V506h9v-17.5l8.4-14.3 8.5-14.2h-9.7l-5.3 9.4c-2.9 5.2-5.7 9.2-6.1 9-.4-.3-2.9-4.5-5.5-9.4l-4.8-9h-5.2c-2.9 0-5.3.2-5.3.5z"/></svg>