<svg xmlns="http://www.w3.org/2000/svg" width="193" height="67"><path fill="#a6212c" d="M28.4 21.8 8 48.4h21V53H1v-3.6l20.3-26.6H2v-4.5h26.4Z"/><path fill="#222" d="M68.2 35.5a18.9 18.9 0 0 1-1.4 7.3 17.2 17.2 0 0 1-9.6 9.6 19.6 19.6 0 0 1-7.4 1.4 19.4 19.4 0 0 1-7.4-1.4 17.2 17.2 0 0 1-9.6-9.6 18.9 18.9 0 0 1-1.4-7.3 18.9 18.9 0 0 1 1.4-7.2 17.2 17.2 0 0 1 9.6-9.6 19.4 19.4 0 0 1 7.4-1.4 19.6 19.6 0 0 1 7.4 1.4 17.2 17.2 0 0 1 9.6 9.6 19 19 0 0 1 1.4 7.2Zm-5.3 0a15.6 15.6 0 0 0-1-5.4 13 13 0 0 0-2.6-4.3 12.4 12.4 0 0 0-4.1-3 14.3 14.3 0 0 0-10.9 0 12 12 0 0 0-4 3 13.3 13.3 0 0 0-2.6 4.3 16.2 16.2 0 0 0 0 10.8 13.3 13.3 0 0 0 2.6 4.4 12 12 0 0 0 4 3 14.3 14.3 0 0 0 10.9 0 12.4 12.4 0 0 0 4.1-3A13 13 0 0 0 62 41a15.6 15.6 0 0 0 1-5.4ZM92 22.7H82V43a11 11 0 0 0 .4 3.1 4.4 4.4 0 0 0 1 2 3.6 3.6 0 0 0 1.6.9 7.5 7.5 0 0 0 2 .2 9.6 9.6 0 0 0 2.7-.4 11.9 11.9 0 0 0 2.4-1l.2 4.6a15.7 15.7 0 0 1-6.6 1.3 12.3 12.3 0 0 1-2.9-.4A6.9 6.9 0 0 1 80 52a7.7 7.7 0 0 1-2-2.8 11.3 11.3 0 0 1-.9-4.7V22.7h-7.3v-4.5h7.3V8.5h5v9.7h10ZM99.1 36.9a14.8 14.8 0 0 0 1.3 4.9 12.8 12.8 0 0 0 6.6 6.5 12 12 0 0 0 4.8 1 12.3 12.3 0 0 0 6.8-1.8 13.6 13.6 0 0 0 4.3-4.2l3.8 3.1A18.7 18.7 0 0 1 120 52a19.1 19.1 0 0 1-8 1.7 18.4 18.4 0 0 1-7.2-1.3 16.7 16.7 0 0 1-5.7-3.8 18 18 0 0 1-3.7-5.8 18.9 18.9 0 0 1-1.4-7.3 19.4 19.4 0 0 1 1.4-7.2 17.6 17.6 0 0 1 3.7-5.8 17 17 0 0 1 5.5-3.8 17.2 17.2 0 0 1 6.9-1.4 16.9 16.9 0 0 1 7 1.5 15.6 15.6 0 0 1 5.3 3.7 16 16 0 0 1 3.2 5.5 20 20 0 0 1 1 6.7v2.2Zm23.6-4a11 11 0 0 0-3-8q-3-3.1-8.3-3.1a11.8 11.8 0 0 0-4.6.9 13 13 0 0 0-3.9 2.5 12.4 12.4 0 0 0-2.6 3.5 9.2 9.2 0 0 0-1 4.2ZM135.2 29l-.2-4.6q-.2-2.3-.1-6.2h4.8v6.5h.1a10.8 10.8 0 0 1 1.5-2.7 11.6 11.6 0 0 1 2.3-2.4 11.4 11.4 0 0 1 3.2-1.6 12.5 12.5 0 0 1 4.1-.7 13.3 13.3 0 0 1 3.6.5l-1 4.8a8.2 8.2 0 0 0-2.7-.4 10 10 0 0 0-4.8 1.1 10.7 10.7 0 0 0-3.4 2.7 11.4 11.4 0 0 0-2 3.6 11.9 11.9 0 0 0-.6 3.7V53h-4.8ZM190.7 35.5a18.9 18.9 0 0 1-1.4 7.3 17.2 17.2 0 0 1-9.6 9.6 19.6 19.6 0 0 1-7.5 1.4 19.4 19.4 0 0 1-7.3-1.4 17.2 17.2 0 0 1-9.7-9.6 18.9 18.9 0 0 1-1.3-7.3 18.9 18.9 0 0 1 1.3-7.2 17.2 17.2 0 0 1 9.7-9.6 19.4 19.4 0 0 1 7.3-1.4 19.6 19.6 0 0 1 7.5 1.4 17.2 17.2 0 0 1 9.6 9.6 19 19 0 0 1 1.4 7.2Zm-5.4 0a15.6 15.6 0 0 0-.9-5.4 13 13 0 0 0-2.6-4.3 12.4 12.4 0 0 0-4.1-3 14.3 14.3 0 0 0-11 0 12 12 0 0 0-4 3 13.3 13.3 0 0 0-2.6 4.3 16.2 16.2 0 0 0 0 10.8 13.3 13.3 0 0 0 2.6 4.4 12 12 0 0 0 4 3 14.3 14.3 0 0 0 11 0 12.4 12.4 0 0 0 4-3 13 13 0 0 0 2.7-4.4 15.5 15.5 0 0 0 1-5.4Z"/></svg>