<svg xmlns="http://www.w3.org/2000/svg" width="100%" viewBox="0 0 6000 6000" fill="#557888" height="150" xmlns:v="https://vecta.io/nano"><path d="M2139.375 4436.276c-5.728-14.179-10.589-27.079-15.469-39.971l-32.916-86.809-35.176-90.215-18.379-47.938c-5.18-14.235-12.317-27.838-14.31-43.16-.241-1.852-1.524-3.645-2.578-5.303-8.59-13.512-12.227-28.948-17.46-43.805-5.249-14.9-11.806-29.333-17.46-44.097-7.776-20.307-14.27-41.166-23.112-60.987-9.171-20.56-14.504-42.597-23.923-62.757-12.328-26.385-21.309-53.997-31.639-80.993-11.036-28.839-24.468-56.874-32.705-86.851-2.946-10.72-8.78-20.617-12.852-31.063l-30.582-79.318c-7.331-18.242-12.412-37.37-21.724-54.841-1.845-3.461-2.706-7.462-3.904-11.251-5.958-18.858-12.542-37.467-21.515-55.15-1.192-2.35-2.496-4.745-3.104-7.273-4.808-20.006-14.875-38.036-21.423-57.356-6.338-18.699-14.001-36.897-21.05-55.29l-26.873-70.231-20.677-55.552c-.793-2.068-3.557-4.606-5.49-4.678-2.086-.077-5.172 2.013-6.222 4.002-2.126 4.026-2.994 8.693-4.692 12.973l-30.756 77.104c-11.479 28.701-22.258 57.698-32.955 86.668-9.114 24.683-20.602 48.423-27.884 73.92-5.394 18.885-14.871 36.59-22.292 54.916l-20.992 53.335c-4.006 10.452-7.308 21.176-11.38 31.6-6.703 17.159-14.836 33.834-20.437 51.331-8.255 25.786-22.111 49.343-28.648 75.823-2.648 10.726-8.569 20.631-12.853 30.97-6.81 16.433-14.144 32.689-20.051 49.444-5.705 16.18-10.824 32.482-18.639 47.88-4.739 9.338-8.129 19.393-11.738 29.268-8.611 23.559-15.45 47.911-25.875 70.625-11.843 25.804-19.896 52.969-31.51 78.845-11.297 25.17-19.35 51.782-29.215 77.613-6.819 17.856-14.488 35.387-21.428 53.199l-20.81 55.547c-3.359 9.298-8.578 17.626-11.468 27.345-5.053 16.992-12.904 33.146-19.456 49.701-2.174 5.494-3.924 11.154-5.932 16.715-7.374 20.418-19.055 39.229-22.755 61.017-9.6 14.167-12.84 32.116-26.403 43.994-2.861 2.505-4.655 6.228-6.469 8.738-6.665 1.896-11.167-.093-15.577-3.79-11.474-9.617-19.601-21.489-24.903-35.376l-13.174-35.017-23.052-58.932c-7.984-19.491-14.334-39.562-22.704-58.961-11.725-27.176-21.178-55.334-31.547-83.093-4.138-11.078-6.955-22.835-12.452-33.178-8.749-16.462-10.006-35.644-19.994-51.479-.517-14.48-12.314-24.374-15.183-38.225-2.652-12.805-7.308-25.447-12.848-37.337-6.715-14.409-12.192-29.181-17.466-44.114-7.008-19.845-17.16-38.451-22.344-59.084-2.542-10.118-8.48-19.171-12.082-29.161-8.927-24.763-19.609-48.866-26.983-74.239-2.924-10.059-7.181-19.865-11.966-29.205-3.957-7.723-6.735-15.668-9.423-23.85-4.513-13.737-9.112-27.615-15.51-40.523-8.252-16.648-12.105-34.868-20.613-51.459-6.866-13.389-10.942-28.218-16.127-42.454l-11.215-31.57c-4.029-10.39-6.233-21.295-12.971-30.931-5.102-7.297-6.762-17.059-9.681-25.815-11.464-34.375-25.882-67.619-38.667-101.486l-42.271-112.561c-10.857-26.847-18.883-54.776-31.843-80.894-8.145-16.415-12.613-34.628-19.118-51.888l-25.104-64.458c-7.197-17.608-11.412-36.447-21.785-52.777-1.315-2.07-.906-5.176-1.573-7.73-1.503-5.76-2.131-12.071-4.986-17.094-7.557-13.295-11.602-27.786-16.57-42.036-7.15-20.511-16.739-40.059-23.08-60.98-5.145-16.973-13.567-32.924-19.564-49.676-6.649-18.575-14.944-36.459-20.989-55.362-5.172-16.176-12.203-31.98-18.158-48.053l-34.115-90.621c-4.802-12.28-10.702-24.185-16.828-35.88-9.207-17.576-16.705-36.189-28.946-52.001-8.423-10.88-15.386-22.8-25.328-32.666-7.407-7.35-15.756-13.985-20.376-24.261-2.557-5.687-8.202-11.134-13.825-14.033-9.207-4.748-15.723-12.127-22.999-18.841-6.324-5.835-12.33-11.813-20.387-15.619-7.072-3.34-10.802-9.632-10.168-17.934.698-9.147-1.676-18.562 2.466-28.675 12.293-.467 24.716-1.34 37.141-1.349l417.966-.163c15.819-.02 29.468 5.091 43.055 13.886-4.598 12.132-6.39 24.383-13.413 35.36-4.42 6.908-9.644 12.59-15.355 18.053-13.239 12.667-18.069 28.99-19.688 46.353-.986 10.574-.141 21.315-.195 31.98-.073 14.328 5.886 27.455 11.351 39.739 8.371 18.814 13.679 38.612 21.703 57.487 10.533 24.778 19.553 50.208 28.886 75.483 3.42 9.261 4.968 19.281 8.953 28.25 9.645 21.709 16.608 44.417 25.915 66.276 10.316 24.23 18.063 49.551 27.059 74.349 2.916 8.038 6.492 15.839 9.331 23.902l15.951 46.625 24.726 64.485c1.878 4.919 3.316 10.005 5.082 14.969 12.567 35.328 26.235 70.263 39.416 105.348 11.818 31.457 22.678 63.302 35.408 94.447 8.709 21.307 15.601 43.352 23.523 64.987 3.17 8.656 6.182 17.502 10.561 25.557 9.201 16.923 11.395 36.578 21.563 53.119 3.033 4.933 4.362 10.968 6.159 16.597 8.829 27.656 22.456 53.427 30.727 81.42 6.124 20.726 16.426 40.201 24.577 60.35l25.426 64.309 23.219 56.729c1.202 2.892 3.185 5.459 4.964 8.439 5.71-4.192 8.92-8.257 11.036-14.258 10.945-31.045 21.01-62.563 34.554-92.48 11.712-25.87 19.947-52.96 31.563-78.861 13.989-31.194 22.694-64.769 36.87-95.862 8.513-18.672 12.33-38.876 22.268-56.981 5.938-10.818 8.166-23.612 12.762-35.241l29.804-73.322c2.967-7.318 6.154-14.597 8.414-22.142 4.551-15.197 10.306-29.828 17.197-44.136 5.399-11.211 10.164-22.85 13.903-34.711 6.353-20.156 13.031-40.025 22.451-59.093 6.68-13.523 10.604-28.394 15.974-42.581l14.438-36.738 20.82-53.413 12.495-33.237 20.793-51.225c5.689-14.876 9.392-30.256 6.099-46.353-1.183-5.785-2.915-11.493-4.85-17.08-1.703-4.918-4.17-9.565-6.076-14.42-12.754-32.49-23.18-65.764-34.061-98.908-5.945-18.109-15.54-35.036-23.717-52.388-4.801-10.188-10.216-20.086-15.064-30.253-10.268-21.533-23.761-40.931-37.743-60.187-9.803-13.5-21.448-25.17-32.004-37.847-6.369-7.649-12.618-14.478-20.669-20.5-11.601-8.677-20.043-20.437-24.776-34.636-1.82-5.461-5.371-10.346-8.804-16.743 4.092-2.77 7.472-6.725 11.438-7.444 14.198-2.572 27.648-7.806 42.681-7.672l227.979.312 149.985-.259c11.845-.144 21.893 4.045 32.329 7.953 2.445.916 4.505 2.861 6.284 4.031-.902 4.495-1.831 7.017-1.846 9.544-.091 16.115-8.514 28.653-17.075 41.273-7.447 10.977-13.04 22.742-16.937 35.644-3.818 12.639-3.539 24.458-.507 37.042 3.565 14.793 7.655 29.206 14.173 43.069 6.149 13.078 8.884 27.461 15.111 40.737 6.971 14.865 11.385 30.93 16.863 46.49.436 1.238.094 2.885.784 3.877 9.626 13.859 12.416 30.459 18.432 45.754l24.895 64.485c8.241 20.8 14.597 42.291 23.839 62.741 5.688 12.586 10.883 25.554 14.62 38.824 5.181 18.395 13.5 35.544 19.473 53.631 10.115 30.626 20.892 61.147 33.618 90.754 7.812 18.174 12.541 37.397 21.853 55.146 8.157 15.548 11.339 33.621 18.094 50.012 8.541 20.724 14.36 42.446 23.827 62.814 2.482 5.34 3.304 11.427 5.427 16.964l25.087 64.431 16.232 42.388c7.458 20.383 13.795 41.218 22.129 61.227 9.397 22.563 15.198 46.55 25.389 68.513 9.214 19.857 14.171 41.064 23.388 60.725 10.371 22.123 17.887 45.344 26.615 68.105 11.523 30.05 24.12 59.688 36.534 90.187 5.063.747 7.978-3.017 9.969-7.038 2.326-4.697 3.641-9.888 5.489-14.829l34.635-92.382 22.198-57.069 24.144-62.736c8.204-21.518 17.32-42.763 24.087-64.728 4.87-15.806 14.022-29.591 18.4-45.56 4.34-15.83 8.897-31.965 16.239-46.512 8.68-17.199 13.122-35.804 21.056-53.243 10.885-23.928 18.216-49.446 28.132-73.851 6.69-16.466 13.554-32.816 18.756-49.826 1.734-5.668 3.457-11.362 5.624-16.871l17.609-43.813 26.361-70.29 12.253-31.237 27.009-70.024c3.761-9.889 6.848-20.036 10.671-29.899l36.648-93.708c13.253-34.429 24.887-69.556 39.781-103.25 7.99-18.075 10.75-38.179 22.123-54.77 3.329-17.456 11.075-34.061 9.96-52.385-.283-4.649-.314-9.348 0-13.993 1.606-23.789-4.588-45.679-15.043-66.826-3.765-7.615-6.287-16.013-8.222-24.322-2.393-10.272 4.726-23.089 21.024-26.561 3.842-.819 7.973-.358 11.97-.359l333.973-.041c8.043-.003 15.579.736 23.128 4.583 7.488 3.816 16.049 5.526 23.861 8.07.199 1.977.95 3.752.369 4.518-9.905 13.053-15.295 29.052-27.712 40.564-15.134 14.031-30.281 28.204-43.933 43.634-14.37 16.243-28.201 33.131-38.477 52.534-5.26 9.932-11.63 19.297-16.568 29.374-9.585 19.563-17.076 40.104-26.044 59.894-8.46 18.669-12.809 38.799-22.816 56.92-5.959 10.79-8.146 23.612-12.553 35.324-5.317 14.131-11.436 27.959-16.773 42.082-12.555 33.222-24.023 66.882-37.517 99.713-10.764 26.188-19.152 53.273-31.317 78.957-7.287 15.385-11.626 32.145-17.666 48.146-6.052 16.034-13.669 31.56-18.604 47.911-5.914 19.595-17.834 36.817-21.152 57.441-1.223 7.604-5.27 14.934-8.9 21.938-9.448 18.226-13.521 38.516-22.661 56.916-5.526 11.124-8.368 23.551-12.89 35.209l-18.501 45.789c-7.174 19.129-13.344 38.636-20.604 57.731-6.069 15.963-13.311 31.476-19.605 47.358-5.579 14.076-10.382 28.458-15.864 42.573l-20.582 51.428-18.584 47.802-30.137 79.21c-9.76 25.891-18.2 52.356-29.388 77.61-10.438 23.562-18.102 48.107-28.236 71.766-11.394 26.6-20.05 54.361-30.43 81.411l-30.805 76.976c-.737 1.827-2.36 3.375-2.796 5.234-3.634 15.498-10.13 29.906-16.275 44.491-11.506 27.309-20.587 55.553-32.658 82.696-9.341 21.004-16.12 43.141-24.231 64.701l-29.406 77.432c-6.142 16.677-12.433 33.25-19.615 49.53-6.633 15.035-11.834 30.695-18.027 45.933-6.427 15.812-10.009 32.728-18.998 47.575-2.679 4.426-4.399 9.701-5.418 14.814-3.509 17.62-12.41 31.756-25.631 43.729-6.29 5.695-11.103 13.082-19.154 16.215-14.578-13.978-26.781-28.34-32.864-48.661zm1641.836-308.275l.032 127.977c.011 7.912.086 15.528 3.718 23.288 2.634 5.627 2.54 13.086 1.944 19.571-2.053 22.361 3.612 43.335 10.531 64.091 2.282 6.846 4.972 13.644 11.253 18.451 3.002 2.298 4.733 6.246 7.074 9.423 1.932 2.623 3.358 6.271 5.966 7.634 14.067 7.357 24.864 19.256 39.156 26.58 13.116 6.721 22.085 18.996 28.193 32.555 1.371 3.042.811 8.095-.873 11.09-2.188 3.892-6.388 6.652-10.81 10.958-4.634.19-10.554.646-16.475.647l-509.903.006c-5.322-.001-10.689.045-15.954-.596-5.752-.7-9.592-4.833-10.367-10.558-1.708-12.605 1.386-23.665 10.74-32.728l38.524-37.714c15.686-15.604 26.489-34.012 34.97-54.603 5.068-12.303 5.855-24.103 5.855-36.567l-.029-1875.642c-.001-9.181 1.156-18.535-2.012-28.516-4.016-.727-7.769-1.785-11.571-2.008-5.979-.35-11.992-.158-17.991-.158-185.965-.004-371.929-.041-557.894.076-13.121.008-26.24-1.444-39.171 4.431-6.147 2.793-14.451 1.216-21.758.988-10.081-.315-19.571 1.279-29.203 4.593-26.769 9.211-54.458 16.058-80.541 26.842-16.767 6.932-34.265 13.863-48.324 26.571-8.071 7.295-8.872 6.923-27.034 3.743-.642-4.065-1.922-8.503-1.95-12.948l-.08-87.983c.01-6.644.646-12.865 4.078-19.178 3.374-6.204 5.723-13.71 5.965-20.733.757-21.986 7.982-42.719 11.228-64.194.773-5.112 3.492-9.936 5.374-14.87 1.153-3.024 2.986-5.905 3.536-9.022l9.15-54.569c1.438-8.388 6.208-15.635 7.745-24.267 1.277-7.172 7.858-12.106 16.297-12.172l19.995-.109 725.861-.07c8.516-.003 17.248 1.45 25.323-1.747 4.551-7.132 2.926-14.66 2.943-21.826l.082-179.965-.053-167.968c-.017-9.156 1.637-18.652-4.999-26.801-1.439-1.767-1.03-5.088-1.348-7.709-3.233-26.602-15.478-48.556-34.518-67.009-.953-.924-1.895-2.017-3.062-2.541-15.062-6.765-24.086-20.599-36.277-30.696-8.432-6.983-11.788-15.332-10.905-26.233 1.81-.766 3.568-2.161 5.327-2.161l551.866.022c1.739.001 3.478 1.365 5.012 2.007 1.714 22.123-15.655 31.477-28.625 42.671-11.85 10.228-26.785 16.818-39.084 26.614-6.995 5.571-12.733 13.716-16.719 21.839-6.358 12.956-11.058 26.638-15.153 40.699-5.345 18.352-5.04 36.56-5.047 55.022l.05 319.939c.007 7.852-1.25 15.948 2.513 24.249 3.167.523 6.325 1.378 9.51 1.501 6.656.258 13.328.155 19.993.155l729.86.006c5.999 0 12.004-.149 17.995.075 14.043.526 21.822 7.06 21.293 20.568-.56 14.274 3.039 27.387 6.715 40.772 3.656 13.312 8.231 26.486 8.177 40.588-.01 2.621-.092 5.784 1.241 7.769 4.318 6.43 3.671 13.914 5.576 20.752 5.661 20.318 7.752 41.495 15.133 61.353 1.145 3.079 2.946 6.14 3.17 9.299 2.064 29.146 11.191 56.592 18.862 84.497 3.064 11.149 1.109 23.794.688 35.731-.188 5.334-5.186 9.681-10.785 10.062-7.261.493-14.581.12-19.611.12l-32.645-23.1c-3.239-2.191-7.153-3.48-10.892-4.806-2.476-.877-5.655-.365-7.726-1.702-19.831-12.812-43.479-14.955-64.828-23.471-5.493-2.191-11.304-3.599-16.749-5.89-8.718-3.668-17.707-4.49-27.085-4.959-13.131-.657-26.351-3.229-39.009-5.973-11.97-2.594-23.58-2.732-35.417-3.287-8.557-.402-17.253 1.025-25.281-3.915-2.587-1.591-6.419-1.383-9.705-1.561-4.653-.253-9.328-.119-13.994-.119-173.3-.003-346.6-.015-519.901.038-7.892.002-15.929-.959-24.63 1.965-.806 3.671-2.154 7.381-2.337 11.147-.387 7.981-.191 15.991-.191 23.989l-.004 1689.681m-167.208-1949.274c-49.243.001-98.485-.064-147.728.081-7.011.021-14.481-1.401-21.242 3.271-.25 4.426-.664 8.372-.667 12.319l-.034 145.731c0 2.661-.107 5.341.156 7.98 1.207 12.085 9.328 20.638 21.353 22.432 2.615.39 5.312.313 7.971.313l251.536.088c8.944.012 17.118-1.438 23.899-7.579 3.608-10.563 8.728-20.569 2.316-32.264-2.271-4.142-.69-10.452-.694-15.771l-.046-111.794c-.011-7.243-.367-14.486-.543-20.937-2.347-1.463-3.459-2.76-4.585-2.771l-131.693-1.099zm1043.228 714.743c-1.645 10.088-3.912 18.411-4.718 26.873-2.009 21.088 6.308 40.118 12.896 59.452 7.353 21.575 21.396 39.452 33.334 58.338 6.59 10.425 17.54 18.072 26.414 27.08 18.202 18.477 39.303 33.199 60.484 47.972 25.954 18.101 52.611 35.077 79.594 51.53 16.342 9.965 34.161 17.604 50.068 28.167 27.183 18.048 57.1 30.618 85.852 45.515l165.815 85.487c12.999 6.573 25.846 13.194 38.196 20.912 6.683 4.176 14.068 7.22 21.102 10.843l22.867 11.978c8.688 4.803 17.503 9.461 25.755 14.947 13.721 9.121 28.421 16.58 41.983 26.027 14.026 9.77 29.478 17.477 43.667 27.035 24.048 16.198 49.163 30.818 71.923 48.952 9.236 7.359 19.776 13.085 28.979 20.481 7.708 6.195 14.218 13.86 21.47 20.649 7.663 7.174 13.922 15.481 23.968 20.583 7.906 4.015 15.157 11.511 19.76 19.217 4.57 7.651 10.405 13.585 16.258 19.856 11.751 12.591 23.681 24.837 34.116 38.824l28.607 38.062c6.132 8.117 10.046 17.142 14.59 25.868 15.277 29.335 30.351 58.716 38.497 91.22 6.738 26.886 13.482 53.602 13.03 81.574-.054 3.31-.624 7.238.863 9.84 6.777 11.86 3.887 24.648 4.421 37.098.113 2.647.576 5.792-.588 7.896-6.897 12.471-5.293 26.024-4.5 39.091 1.102 18.146-.797 36.244-5.217 53.238-4.145 15.932-6.395 32.16-10.583 47.961-4.054 15.294-8.345 30.79-14.941 45.085-10.798 23.402-21.761 46.966-37.123 67.852-10.143 13.791-17.608 29.44-29.81 41.815-5.55 5.628-9.659 12.669-15.147 18.371-13.851 14.391-27.49 29.083-42.359 42.372-21.22 18.964-43.97 36.067-68.389 50.877-26.078 15.817-53.497 29.102-80.622 42.905-24.695 12.567-50.732 22.115-77.103 30.568-18.156 5.82-36.685 10.487-54.802 16.417-12.63 4.132-25.497 6.341-38.568 8.204-9.094 1.296-18.606 2.551-26.85 6.24-12.304 5.505-25.515 5.891-37.936 9.46-16.707 4.8-34.461 1.318-50.635 8.326-2.858 1.238-6.581.508-9.906.636-11.169.433-22.251-.891-33.176 4.476-5.454 2.679-13.099.835-19.748 1.159-13.161.64-26.531-1.943-39.349 4.041-3.894 1.818-9.198.773-13.856.774-80.654.023-161.307.074-241.96-.131-6.495-.017-12.976-1.918-19.48-2.816-5.236-.724-10.488-1.635-15.753-1.788-9.99-.29-19.995-.036-29.992-.134-3.987-.039-8.643.845-11.834-.861-11.284-6.033-23.268-4.465-35.139-4.703-7.286-.146-14.446.095-21.497-3.188-3.963-1.846-9.076-1.427-13.688-1.628-7.281-.318-14.703.625-21.417-3.392-1.086-.649-2.525-.853-3.829-.975l-47.424-4.307c-6.527-.52-12.433-1.27-18.897-4.079-10.027-4.357-21.602-5.247-32.579-7.296-16.178-3.021-32.517-5.268-48.581-8.787-13.469-2.95-26.905-6.518-39.856-11.196-9.183-3.316-15.346-10.354-14.679-21.357.241-3.983-.002-7.996-.002-11.995l.009-263.958c.001-5.331-.203-10.692.27-15.987.864-9.68 8.663-15.822 18.147-13.276 6.224 1.671 12.529 4.717 17.609 8.674 17.744 13.822 36.726 25.521 55.944 37.19 29.488 17.906 60.483 32.795 91.581 47.163 28.548 13.19 57.872 25.559 89.361 31.066 5.099.891 9.842 3.666 14.853 5.244 14.45 4.551 29.197 7.4 44.184 9.927 12.111 2.042 24.877 2.357 36.511 7.592 3.493 1.571 7.709 1.815 11.634 2.084 6.604.453 13.373-.425 19.364 3.519 1.054.694 2.512.961 3.812 1.066 18.474 1.502 36.936 3.868 55.433 4.202 36.649.662 73.318.276 109.979.147 11.903-.042 23.832 1.043 35.558-3.184 4.766-1.718 10.556-.6 15.88-.762 7.263-.22 14.679.832 21.356-3.487 1.546-1 3.849-1.107 5.813-1.141 21.414-.367 40.845-9.864 61.561-13.311 25.556-4.253 48.926-15.471 73.428-23.025 23.226-7.161 44.053-20.709 65.204-32.933 11.421-6.6 20.364-16.61 32.371-22.346 2.852-1.362 4.924-4.397 7.288-6.731 11.846-11.692 24.053-23.052 35.35-35.254 6.218-6.717 11.928-14.342 16.021-22.486 6.195-12.323 13.707-23.85 17.583-37.667 3.31-11.797 9.83-22.854 12.16-35.254.607-3.232 1.963-6.418 2.019-9.642.277-15.973 4.795-31.112 8.22-46.52 2.598-11.687 2.823-23.714-.632-35.487-.926-3.156-2.682-6.405-2.469-9.502 1.081-15.775-4.866-29.966-10.142-44.075-8.368-22.378-20.13-42.799-36.117-61.022-11.329-12.913-20.774-27.425-34.246-38.516l-45.983-37.311c-21.666-17.573-45.157-32.301-68.304-47.574-13.787-9.097-28.411-17.001-43.026-24.748-21.05-11.158-42.134-22.336-63.755-32.31-25.242-11.644-47.661-28.258-73.064-39.637-26.536-11.886-53.136-23.962-78.375-38.301-19.561-11.113-40.572-19.196-59.416-32.061-18.443-12.591-39.776-20.924-59.738-31.323-18.726-9.754-38.087-18.566-55.794-29.935-29.353-18.846-60.477-34.74-88.798-55.379l-53.966-39.345c-10.226-7.471-19-16.654-29.148-23.692-28.201-19.558-49.716-45.902-73.108-70.131-18.19-18.841-33.349-40.728-47.762-62.905-14.854-22.857-26.312-47.505-37.635-72.03-11.262-24.396-18.13-50.382-22.75-77.354-4.563-26.64-2.478-52.943-3.832-79.367-.508-9.927-2.106-19.814-3.509-29.676-1.039-7.298-1.208-14.141 1.069-21.557 2.275-7.41 2.52-15.705 2.279-23.571-.533-17.44 4.707-33.82 7.816-50.625 4.47-24.157 14.879-46.303 22.694-69.309 3.158-9.297 8.61-17.906 13.655-26.452 11.022-18.674 21.626-37.463 34.651-55.08 19.591-26.498 45.2-46.793 67.265-70.658 6.18-6.684 14.383-11.544 21.843-16.987 9.624-7.022 19.083-14.363 29.231-20.553 26.399-16.101 52.114-33.388 81.912-43.349 18.077-6.043 35.071-15.392 53.222-21.134 26.271-8.311 51.783-19.131 79.357-23.477 12.871-2.029 25.197-7.437 37.821-11.141 4.389-1.288 8.898-2.718 13.408-2.932 11.267-.534 22.446-.129 33.581-3.526 6.144-1.874 14.091 1.283 19.721-1.216 13.688-6.077 29.06-1.669 42.59-8.594 4.854-2.484 11.768-1.219 17.741-1.197l147.954.658 141.96-.628c9.869-.028 19.569-.66 29.249 4.113 5.463 2.694 13.063 1.096 19.703 1.352 9.879.38 20.035-1.504 29.286 3.865 1.078.625 2.597.727 3.901.691 14.665-.396 29.032 1.784 43.486 4.013 9.707 1.497 19.977-.804 28.98 5.188 1.458.97 3.921.708 5.893.581 15.542-1.001 29.897 4.403 44.599 8.021 3.827.942 7.869 1.7 11.769 1.533 17.603-.756 33.536 5.742 49.864 10.737 7.439 2.276 11.094 6.77 10.939 14.495-.054 2.664.082 5.332.082 7.998l-.051 271.956c-.004 5.19-.767 10.38-1.162 15.382-7.097 4.072-13.891 3.016-20.321 2.483-3.667-.304-8.105-1.903-10.53-4.484-5.587-5.946-12.431-9.714-19.099-14.042-11.592-7.526-23.312-15.076-33.847-23.958-16.354-13.789-35.375-23.127-53.756-33.323-17.254-9.571-34.71-19.035-53.831-25.153-16.924-5.415-33.146-13.016-49.709-19.576-3.035-1.201-6.177-2.19-9.344-2.98-1.912-.477-4.32.247-5.902-.642-13.553-7.611-28.282-10.453-43.549-11.705-5.18-.425-10.247-2.141-15.392-3.128-8.386-1.608-16.739-3.706-25.208-4.476-8.585-.78-17.088-.315-25.365-4.158-3.906-1.813-9.183-.837-13.839-.843-35.328-.048-70.656-.177-105.981.113-6.495.053-12.981 1.852-19.459 2.927-2.606.432-5.201 1.657-7.758 1.544-23.442-1.034-45.255 8.637-68.307 10.306-5.066.367-9.823 3.875-14.928 5.031-26.487 5.998-50.953 17.643-75.817 27.87-15.735 6.472-30.029 16.515-44.805 25.233-11.321 6.679-20.805 15.931-32.384 22.509-7.835 4.451-14.437 11.905-20.107 19.172-13.374 17.142-26.912 34.442-36.396 54.029-6.259 12.928-9.564 27.321-13.814 41.173-2.318 7.556-3.848 15.353-5.776 24.743z"/></svg>