<svg xmlns="http://www.w3.org/2000/svg" xmlns:xlink="http://www.w3.org/1999/xlink" width="46" height="46"><defs><filter id="a" width="200%" height="200%" x="-50%" y="-50%" filterUnits="objectBoundingBox"><feOffset dy="1" in="SourceAlpha" result="shadowOffsetOuter1"/><feGaussianBlur in="shadowOffsetOuter1" result="shadowBlurOuter1" stdDeviation=".5"/><feColorMatrix in="shadowBlurOuter1" result="shadowMatrixOuter1" values="0 0 0 0 0 0 0 0 0 0 0 0 0 0 0 0 0 0 0.168 0"/><feOffset in="SourceAlpha" result="shadowOffsetOuter2"/><feGaussianBlur in="shadowOffsetOuter2" result="shadowBlurOuter2" stdDeviation=".5"/><feColorMatrix in="shadowBlurOuter2" result="shadowMatrixOuter2" values="0 0 0 0 0 0 0 0 0 0 0 0 0 0 0 0 0 0 0.084 0"/><feMerge><feMergeNode in="shadowMatrixOuter1"/><feMergeNode in="shadowMatrixOuter2"/><feMergeNode in="SourceGraphic"/></feMerge></filter><rect id="b" width="40" height="40" x="0" y="0" rx="2"/></defs><g fill="none" fill-rule="evenodd"><g filter="url(#a)" transform="translate(3 3)"><use xlink:href="#b" fill="#EEE"/><use xlink:href="#b"/><use xlink:href="#b"/><use xlink:href="#b"/></g><path fill="#4285F4" d="m31.6 23.2-.1-1.8H23v3.4h4.8C27.6 26 27 27 26 27.6v2.2h3a8.8 8.8 0 0 0 2.6-6.6Z"/><path fill="#34A853" d="M23 32c2.4 0 4.5-.8 6-2.2l-3-2.2a5.4 5.4 0 0 1-8-2.9h-3V27a9 9 0 0 0 8 5Z"/><path fill="#FBBC05" d="M18 24.7a5.4 5.4 0 0 1 0-3.4V19h-3a9 9 0 0 0 0 8l3-2.3Z"/><path fill="#EA4335" d="M23 17.6c1.3 0 2.5.4 3.4 1.3l2.6-2.6A9 9 0 0 0 15 19l3 2.4a5.4 5.4 0 0 1 5-3.7Z"/><path d="M14 14h18v18H14V14Z"/></g></svg>